<svg xmlns="http://www.w3.org/2000/svg" xmlns:xlink="http://www.w3.org/1999/xlink" width="331.873" height="347.139" viewBox="0 0 331.873 347.139"><defs><style>.a{fill:#ac2c1d;}.b{fill:url(#a);}.c{fill:url(#b);}.d{fill:url(#c);}.e{fill:url(#d);}.f{fill:url(#e);}.g{fill:url(#f);}.h{fill:url(#g);}.i{fill:url(#h);}</style><linearGradient id="a" x1="1.073" y1="0.177" x2="0.294" y2="0.904" gradientUnits="objectBoundingBox"><stop offset="0" stop-color="#33231e"/><stop offset="0.955" stop-color="#161414"/></linearGradient><linearGradient id="b" x1="0" y1="0.5" x2="1" y2="0.5" xlink:href="#a"/><linearGradient id="c" x1="1.349" y1="1.024" x2="0.079" y2="0.014" xlink:href="#a"/><linearGradient id="d" x1="-0.082" y1="0.287" x2="0.572" y2="0.783" xlink:href="#a"/><linearGradient id="e" x1="-0.003" y1="0.969" x2="1.204" y2="-0.302" xlink:href="#a"/><linearGradient id="f" x1="-0.17" y1="0.14" x2="0.993" y2="1.026" gradientUnits="objectBoundingBox"><stop offset="0" stop-color="#f1cdcd"/><stop offset="0.141" stop-color="#f1beb6"/><stop offset="0.348" stop-color="#f1ad9b"/><stop offset="0.559" stop-color="#f1a188"/><stop offset="0.774" stop-color="#f19a7c"/><stop offset="1" stop-color="#f19879"/></linearGradient><linearGradient id="g" x1="1.062" y1="0.594" x2="0.005" y2="0.443" gradientUnits="objectBoundingBox"><stop offset="0.261" stop-color="#f18d13"/><stop offset="0.405" stop-color="#f09b20"/><stop offset="0.79" stop-color="#efbc40"/><stop offset="1" stop-color="#efc94d"/></linearGradient><linearGradient id="h" x1="1.061" y1="0.639" x2="-0.006" y2="0.4" xlink:href="#g"/></defs><g transform="translate(0 0)"><g transform="translate(0 15.25)"><path class="a" d="M1968.452,654.462a165.138,165.138,0,0,1-24,86.014q-4.078,6.722-8.778,13.024A165.952,165.952,0,1,1,1744.01,499.15a162.665,162.665,0,0,1,17.069-5.421h.017a165.878,165.878,0,0,1,27.424-4.616q6.923-.579,14-.587c2.031,0,4.044.034,6.042.117A165.932,165.932,0,0,1,1968.452,654.462Z" transform="translate(-1636.58 -488.526)"/></g><g transform="translate(81.819 0)"><path class="b" d="M1972.372,588.791c-12.94,9.386-26.1,14.538-39.127,15.357-4.782.307-9.564.141-15.088-.051a214.736,214.736,0,0,0-33.807.9c-.154-.128-.32-.256-.486-.383q-4.68-3.663-9.526-7.135c6.572-1.905,13.426-2.7,20.817-3.555,12.646-1.458,26.98-3.12,43.461-11.112a108.9,108.9,0,0,0,16.572-9.935l-.294-.4a69.236,69.236,0,0,1,5.882,4.322A78.261,78.261,0,0,1,1972.372,588.791Z" transform="translate(-1835.306 -514.555)"/><path class="c" d="M1945.655,630.459a112.963,112.963,0,0,0-18.54-5.127c6.317-.141,11.789.051,16.878.23,5.613.192,10.459.358,15.408.051,13.656-.869,27.388-6.24,40.84-15.983a74.213,74.213,0,0,1,7.378,12.646,66.12,66.12,0,0,1,5.946,27.823,39,39,0,0,1-15.958,3.606h-.576c-9.948-.166-16.891-4.5-25.675-9.986C1964.49,639.422,1956.7,634.564,1945.655,630.459Z" transform="translate(-1861.257 -532.824)"/><path class="d" d="M1939.477,657.561a79.81,79.81,0,0,0-26.1-12.863,111.169,111.169,0,0,1,24.41,6.01c10.74,3.989,18.387,8.759,25.125,12.966,8.835,5.524,16.481,10.293,27.312,10.472h.627a41.6,41.6,0,0,0,15.868-3.286c-.729,15.906-6.24,31.352-11.712,46.057a40.028,40.028,0,0,1-7.979-2.877c-11.61-5.651-16.955-15.062-23.156-25.956C1958.248,678.173,1951.867,666.934,1939.477,657.561Z" transform="translate(-1854.503 -550.067)"/><path class="e" d="M2079.89,820.307q-4.078,6.723-8.778,13.024-52.842,19.888-105.684,39.776a261.281,261.281,0,0,0,10.506-68.979c.5-30.193,1.343-80.694-30.344-120.4-7.854-9.818-19.334-21.046-33.566-32.845a75.85,75.85,0,0,1,24.856,12.269c11.866,8.979,17.807,19.452,23.547,29.555,6.193,10.893,12.017,21.164,24.537,27.256a44.43,44.43,0,0,0,8.257,3.021c-7.62,20.493-14.534,39.508-7.4,56.258C1993.322,796.794,2016,814.718,2079.89,820.307Z" transform="translate(-1853.837 -553.107)"/><path class="f" d="M1901.854,548.385l-19,11.755L1861.7,556.45l-21.909,17.358q7.27,4.545,14.314,9.506c7.672-2.57,15.548-3.478,23.694-4.411,12.39-1.445,26.442-3.069,42.438-10.818a103.055,103.055,0,0,0,15.2-9.027,74,74,0,0,0-9.025-4.642Z" transform="translate(-1818.317 -502.709)"/><path class="g" d="M1882.3,669.782c-9.113-11.412-23.547-24.923-41.69-39.088a314.7,314.7,0,0,0-28.129-19.536c-11.127,18.462-10.825,38.568-9.868,47.3.4,3.592.772,5.253,1.175,10,1.091,12.47.5,27.474-6.244,37.712,0,0,20.727.739,14.635,20.325,11.362.889.3,13.377,3.34,20.241.772,2.551,4.364,5.925,7.015,5.79,14.216-.722,32.291-13.7,48.688-7.519,7.234,2.736,12.99,11.749,13.745,19.267.219,23.933-53.622,42.277-67.737,65.79-7.8,11.5-11.8,22.222-13.41,31.284a164.306,164.306,0,0,0,41,15.256c17.354-6.025,33.952-11.614,53.74-19.066a252.756,252.756,0,0,0,12.135-73.091C1911.17,755.477,1911.976,706.974,1882.3,669.782Zm-71.732-7.4a1.5,1.5,0,0,1-.973-.336,1.576,1.576,0,0,1-.268-2.216,27.229,27.229,0,0,1,21.634-10.372,1.586,1.586,0,0,1-.017,3.172h-.251a23.956,23.956,0,0,0-18.881,9.147A1.564,1.564,0,0,1,1810.571,662.381Zm16.851,9.919c-4.649,1.46-11.983.269-14.987-1.359a.017.017,0,0,0-.017-.017h-.017a.731.731,0,0,1-.118-.1c-.05-.05-.1-.067-.151-.118a.682.682,0,0,1-.084-.151l-.1-.151c0-.067-.017-.117-.017-.185a.465.465,0,0,1,.017-.336.332.332,0,0,1,.034-.168.016.016,0,0,0,.017-.017v-.017a18.269,18.269,0,0,1,11.631-9.264,18.518,18.518,0,0,1,15.357,3.357.016.016,0,0,1,.017.017l.017.017c.051.017.067.067.1.117s.084.084.117.134c.017.05.034.117.05.168a.863.863,0,0,1,.034.185.292.292,0,0,1-.017.168v.184a.782.782,0,0,1-.1.151c-.017.05-.017.117-.067.151l-.017.017v.017A23.271,23.271,0,0,1,1827.422,672.3Zm11.4-.319a1.7,1.7,0,0,1,3.39,0C1842.241,674.162,1838.8,674.162,1838.818,671.981Zm3.508,8.828c-2.165.034-2.182-3.39,0-3.357A1.679,1.679,0,0,1,1842.325,680.809Z" transform="translate(-1797.548 -533.575)"/><g transform="translate(21.818)"><path class="h" d="M1858.086,499.027a68.747,68.747,0,0,0-14.4,7.608l3.578-36.9L1879.7,488.89l22.294-30.366,13.946,25.485a75.991,75.991,0,0,1-14.178,6.548c-8.281,2.8-14.9,3.39-21.3,3.964C1873.677,495.117,1866.677,495.747,1858.086,499.027Z" transform="translate(-1842.053 -458.524)"/><path class="i" d="M1926.313,533.314l-25.386-6.625-18.209,12.091-21.51-3.964-20.737,16.077,1.2-12.411a66.383,66.383,0,0,1,16.022-8.889c8.15-3.125,14.62-3.7,21.466-4.306,6.6-.6,13.427-1.192,22.073-4.13a78.875,78.875,0,0,0,14.708-6.78Z" transform="translate(-1840.472 -485.987)"/></g></g></g></svg>