<svg xmlns="http://www.w3.org/2000/svg" width="121.091" height="91.558" viewBox="0 0 121.091 91.558"><defs><style>.a{fill:#fef5ec;}</style></defs><path class="a" d="M385.206,351.134a97.083,97.083,0,0,0-20.312,10.732l5.047-52.055,45.748,27.025L447.137,294l19.673,35.95a107.229,107.229,0,0,1-20,9.237c-11.682,3.956-21.013,4.782-30.047,5.592C407.2,345.62,397.325,346.508,385.206,351.134Z" transform="translate(-362.589 -294)"/><path class="a" d="M483.5,363.895l-35.81-9.345L422,371.605l-30.343-5.592-29.252,22.68,1.7-17.509a93.654,93.654,0,0,1,22.6-12.539c11.5-4.408,20.623-5.219,30.281-6.075,9.314-.841,18.94-1.682,31.137-5.826a111.236,111.236,0,0,0,20.748-9.564Z" transform="translate(-362.409 -297.135)"/></svg>